# xmcd CD database file
#
# Track frame offsets:
#	150
#	18603
#	34575
#	46009
#	58176
#	79200
#	95475
#	112800
#	124532
#	138899
#	152025
#	168749
#	187860
#
# Disc length: 2707 seconds
#
# Revision: 0
# Processed by: cddbd v1.4PL0 Copyright (c) Steve Scherf et al.
# Submitted via: CDex 1.50
#
DISCID=9e0a910d
DTITLE=Mike Marra and George Masso - It's Mike by George
DYEAR=2003
DGENRE=Jazz
TTITLE0=Baby Won't You Please Come Home
TTITLE1=I guess I'll Have To Change My Plans
TTITLE2=They Say It's Wonderful
TTITLE3=You Better Go Now
TTITLE4=I Thought About You
TTITLE5=I Want A Little Girl
TTITLE6=Rainbow Connection
TTITLE7=Soft Lights and Sweet Music
TTITLE8=He loves, She Loves
TTITLE9=Wait Till You See Her
TTITLE10=Isn't This A Lovely Day (To Be Caught In The Rain)
TTITLE11=I Want To Lead When I Dance
TTITLE12=Plenty of Money and You
EXTD=YEAR: 2003
EXTT0=
EXTT1=
EXTT2=
EXTT3=
EXTT4=
EXTT5=
EXTT6=
EXTT7=
EXTT8=
EXTT9=
EXTT10=
EXTT11=
EXTT12=
PLAYORDER=
